<svg width="80" height="80" viewBox="0 0 80 80" fill="none" xmlns="http://www.w3.org/2000/svg">
<g clip-path="url(#clip0)">
<rect x="30" y="1" width="6" height="18" fill="#4FCB44"/>
<rect x="19" y="30" width="6" height="18" transform="rotate(90 19 30)" fill="#4FCB44"/>
<rect x="53.5061" y="8.25122" width="6" height="18" transform="rotate(45 53.5061 8.25122)" fill="#1A96F0"/>
<rect x="20.9792" y="40.7782" width="6" height="18" transform="rotate(45 20.9792 40.7782)" fill="#1A96F0"/>
<path fill-rule="evenodd" clip-rule="evenodd" d="M56.0556 59.1412L67.3289 70.4145L70.4145 67.3289L59.1412 56.0556L64.1131 51.0837L40.9291 40.9291L51.0837 64.1131L56.0556 59.1412ZM47.3505 70.5446C48.1979 72.4794 50.7262 72.9559 52.2198 71.4623L56.0556 67.6264L67.3289 78.8997L78.8998 67.3289L67.6265 56.0556L71.4624 52.2197C72.9559 50.7261 72.4794 48.1979 70.5446 47.3504L33.9613 31.3268C32.2933 30.5963 30.5963 32.2933 31.3269 33.9612L47.3505 70.5446Z" fill="#1A96F0"/>
<path d="M70.2859 67.4575L70.4144 67.329L59.1411 56.0557L64.113 51.0837L64.0568 51.0591L68.612 46.5039L70.5446 47.3505C72.4793 48.198 72.9558 50.7262 71.4623 52.2198L67.6264 56.0557L78.8997 67.329L74.5285 71.7001L70.2859 67.4575Z" fill="#4FCB44"/>
<rect x="25.2217" y="20.9792" width="6" height="18" transform="rotate(135 25.2217 20.9792)" fill="#1A96F0"/>
</g>
<defs>
<clipPath id="clip0">
<rect width="80" height="80" fill="white"/>
</clipPath>
</defs>
</svg>
