<svg width="71" height="71" viewBox="0 0 71 71" fill="none" xmlns="http://www.w3.org/2000/svg">
<path fill-rule="evenodd" clip-rule="evenodd" d="M36 6.38638L10.0008 15.8659L10 23.813C10 35.617 13.1121 44.6145 17.9389 51.1304C22.447 57.216 28.6778 61.4468 36 63.7494C43.3221 61.4468 49.553 57.216 54.0611 51.1304C58.8879 44.6145 62 35.617 62 23.813L61.9992 15.8659L36 6.38638ZM36 0L4.00204 11.6667C4.00068 11.8263 4 23.6529 4 23.813C4 49.5833 17.6471 65.0172 36 70C54.3529 65.0172 68 49.5833 68 23.813C68 23.6529 67.9993 11.8263 67.998 11.6667L36 0Z" fill="#1A96F0"/>
<rect x="33" y="5" width="6" height="12" fill="#1A96F0"/>
<rect x="33" y="54" width="6" height="12" fill="#1A96F0"/>
<path d="M19 38.9994V32.2632L36.0001 26L54 32.6315V36.0005L53.0001 39L36.0001 32.7369L19 38.9994Z" fill="#4FCB44"/>
<path d="M36 26L19 32.2632V38.9994L36 32.7369V26Z" fill="#1A96F0"/>
<path fill-rule="evenodd" clip-rule="evenodd" d="M36 19.832L22.4289 24.8322L22.4286 28.2878C22.4286 35.0334 24.1841 40.0249 26.7778 43.5631C29.0857 46.7114 32.2431 48.9655 36 50.2717C39.7569 48.9655 42.9143 46.7114 45.2222 43.5631C47.8159 40.0249 49.5714 35.0334 49.5714 28.2878L49.5711 24.8322L36 19.832ZM36 14L17.0012 21C17.0004 21.0958 17 28.1918 17 28.2878C17 43.75 25.103 53.0103 36 56C46.897 53.0103 55 43.75 55 28.2878C55 28.1918 54.9996 21.0958 54.9988 21L36 14Z" fill="#4FCB44"/>
</svg>
