<svg width="25" height="21" viewBox="0 0 25 21" fill="none" xmlns="http://www.w3.org/2000/svg">
<path fill-rule="evenodd" clip-rule="evenodd" d="M22.2308 0H18.7692V2.76923H16V6.23077H18.7692V9H22.2308V6.23077H25V2.76923L22.2308 2.76923V0Z" fill="#4FCB44"/>
<path fill-rule="evenodd" clip-rule="evenodd" d="M0 6.66667H3.08719L6.43703 15.6667H20.099L20.6733 13H20.6535L21 11.3333H18.1136L17.7102 13H8.30225L6.68937 8.66667H13.3993V6H5.69682L4.95241 4H0V6.66667Z" fill="#1A96F0"/>
<path d="M11.3894 19C11.3894 20.1046 10.4896 21 9.37954 21C8.2695 21 7.36964 20.1046 7.36964 19C7.36964 17.8954 8.2695 17 9.37954 17C10.4896 17 11.3894 17.8954 11.3894 19Z" fill="#1A96F0"/>
<path d="M16.7492 21C17.8592 21 18.7591 20.1046 18.7591 19C18.7591 17.8954 17.8592 17 16.7492 17C15.6391 17 14.7393 17.8954 14.7393 19C14.7393 20.1046 15.6391 21 16.7492 21Z" fill="#1A96F0"/>
</svg>
