<svg width="18" height="18" viewBox="0 0 18 18" fill="none" xmlns="http://www.w3.org/2000/svg">
<path d="M16 -4.37114e-07L18 -5.24537e-07L18 18L16 18L16 -4.37114e-07Z" fill="#1A96F0"/>
<path d="M18 -5.24537e-07L18 2L6 2L6 0L18 -5.24537e-07Z" fill="#1A96F0"/>
<path d="M18 16L18 18L6 18L6 16L18 16Z" fill="#1A96F0"/>
<path d="M-7.39434e-08 10L-1.61366e-07 8.00002L8 8.00002L8 10L-7.39434e-08 10Z" fill="#4FCB44"/>
<path d="M6.72361 11.6382C6.39116 11.8044 6 11.5627 6 11.191L6 6.80904C6 6.43735 6.39116 6.1956 6.72361 6.36183L11.1056 8.55281C11.4741 8.73707 11.4741 9.26297 11.1056 9.44724L6.72361 11.6382Z" fill="#4FCB44"/>
</svg>
