<svg width="28" height="32" viewBox="0 0 28 32" fill="none" xmlns="http://www.w3.org/2000/svg">
<path d="M0.000915527 5.33333L14 0V32C5.97058 29.7222 0 22.6667 0 10.8859C0 10.8127 0.000305176 5.40632 0.000915527 5.33333Z" fill="#1A96F0"/>
<path d="M27.9991 5.33333L14 0V32C22.0294 29.7222 28 22.6667 28 10.8859C28 10.8127 27.9997 5.40632 27.9991 5.33333Z" fill="#4FCB44"/>
<path d="M1.50022 8.10973L1.50048 6.36721L14 1.60517L26.4995 6.36721L26.4998 8.10973L26.5 10.8859C26.5 21.8641 21.1106 28.2407 14 30.4357C6.88941 28.2407 1.5 21.8641 1.5 10.8859L1.50022 8.10973Z" stroke="#353A40" stroke-width="3"/>
</svg>
