<svg aria-hidden="true" style="position: absolute; width: 0; height: 0; overflow: hidden;" version="1.1" xmlns="http://www.w3.org/2000/svg" xmlns:xlink="http://www.w3.org/1999/xlink">
<defs>
<symbol id="icon-list" viewBox="0 0 26 32">
<path fill="#1a96f0" style="fill: var(--color1, #1a96f0)" d="M23.273 2.909v26.182h-20.364v-26.182h20.364zM0 0v32h26.182v-32h-26.182z"></path>
<path fill="#4fcb44" style="fill: var(--color2, #4fcb44)" d="M7.273 8.727h11.636c0.803 0 1.455 0.651 1.455 1.455s-0.651 1.455-1.455 1.455h-11.636c-0.803 0-1.455-0.651-1.455-1.455s0.651-1.455 1.455-1.455z"></path>
<path fill="#4fcb44" style="fill: var(--color2, #4fcb44)" d="M7.273 14.545h11.636c0.803 0 1.455 0.651 1.455 1.455s-0.651 1.455-1.455 1.455h-11.636c-0.803 0-1.455-0.651-1.455-1.455s0.651-1.455 1.455-1.455z"></path>
<path fill="#4fcb44" style="fill: var(--color2, #4fcb44)" d="M7.273 20.364h8.727c0.803 0 1.455 0.651 1.455 1.455s-0.651 1.455-1.455 1.455h-8.727c-0.803 0-1.455-0.651-1.455-1.455s0.651-1.455 1.455-1.455z"></path>
</symbol>
<symbol id="icon-plus" viewBox="0 0 32 32">
<path class="path1"  d="M10.667 0h10.667v10.667l-10.667 10.667h-10.667v-10.667h10.667v-10.667z"></path>
<path class="path2" d="M21.333 32h-10.667v-10.667l10.667-10.667h10.667v10.667h-10.667v10.667z"></path>
</symbol>
<symbol id="icon-search" viewBox="0 0 32 32">
<path  fill="#fff" style="fill: var(--color3, #fff)" d="M13.176 22.588c-5.198 0-9.412-4.214-9.412-9.412s4.214-9.412 9.412-9.412c5.198 0 9.412 4.214 9.412 9.412s-4.214 9.412-9.412 9.412zM13.176 26.353c7.277 0 13.176-5.899 13.176-13.176s-5.899-13.176-13.176-13.176c-7.277 0-13.176 5.899-13.176 13.176s5.899 13.176 13.176 13.176z"></path>
<path  fill="#fff" style="fill: var(--color3, #fff)" d="M22.81 20.148l6.689 6.621c0.739 0.731 0.745 1.923 0.013 2.662s-1.923 0.745-2.662 0.013l-6.689-6.621c-0.739-0.731-0.745-1.923-0.013-2.662s1.923-0.745 2.662-0.013z"></path>
</symbol>
</defs>
</svg>
