<svg width="140" height="140" viewBox="0 0 140 140" fill="none" xmlns="http://www.w3.org/2000/svg">
<path d="M23.8223 122.61C30.9183 106.358 47.1322 95 65.9991 95H73.9991C92.866 95 109.08 106.358 116.176 122.61C114.611 123.985 112.984 125.291 111.299 126.524C105.499 111.588 90.9853 101 73.9991 101H65.9991C49.0129 101 34.4996 111.588 28.6989 126.524C27.0146 125.291 25.3875 123.985 23.8223 122.61Z" fill="#4FCB44"/>
<path fill-rule="evenodd" clip-rule="evenodd" d="M115.255 115.255C140.248 90.2613 140.248 49.7387 115.255 24.7452C90.2613 -0.248388 49.7387 -0.248386 24.7452 24.7452C-0.248388 49.7387 -0.248388 90.2613 24.7452 115.255C49.7387 140.248 90.2613 140.248 115.255 115.255ZM119.497 119.497C146.834 92.1608 146.834 47.8392 119.497 20.5025C92.1608 -6.83418 47.8392 -6.83418 20.5025 20.5025C-6.83418 47.8392 -6.83418 92.1608 20.5025 119.497C47.8392 146.834 92.1608 146.834 119.497 119.497Z" fill="#1A96F0"/>
<path fill-rule="evenodd" clip-rule="evenodd" d="M70 95C83.8071 95 95 83.8071 95 70C95 56.1929 83.8071 45 70 45C56.1929 45 45 56.1929 45 70C45 83.8071 56.1929 95 70 95ZM70 101C87.1208 101 101 87.1208 101 70C101 52.8792 87.1208 39 70 39C52.8792 39 39 52.8792 39 70C39 87.1208 52.8792 101 70 101Z" fill="#4FCB44"/>
<path d="M39.248 66.0576C41.1848 50.7983 54.2144 39 69.9997 39C85.5998 39 98.5085 50.5231 100.679 65.5219C98.8307 66.611 96.9208 67.6061 94.9555 68.5009C94.1802 55.3917 83.3035 45 69.9997 45C56.5491 45 45.5794 55.6223 45.0219 68.9359C43.041 68.0755 41.1142 67.1139 39.248 66.0576Z" fill="#1A96F0"/>
<path d="M58 74C58.7567 80.1168 63.8471 84.8462 70.0142 84.8462C76.1089 84.8462 81.1522 80.2271 82 74.2147" stroke="#1A96F0" stroke-width="6"/>
<path d="M122.908 24.1624C121.823 22.9123 120.686 21.6915 119.497 20.5028C92.1606 -6.83394 47.8391 -6.83392 20.5024 20.5028C19.3137 21.6915 18.1766 22.9123 17.0913 24.1625C18.5222 25.5868 19.9963 26.9415 21.5093 28.2266C22.5368 27.0364 23.6154 25.875 24.745 24.7454C49.7386 -0.248123 90.2611 -0.248146 115.255 24.7454C116.384 25.875 117.463 27.0364 118.49 28.2266C120.003 26.9415 121.478 25.5868 122.908 24.1624Z" fill="#4FCB44"/>
</svg>
