<svg width="23" height="23" viewBox="0 0 23 23" fill="none" xmlns="http://www.w3.org/2000/svg">
<path fill-rule="evenodd" clip-rule="evenodd" d="M11.5 14C12.8807 14 14 12.8807 14 11.5C14 10.1193 12.8807 9 11.5 9C10.1193 9 9 10.1193 9 11.5C9 12.8807 10.1193 14 11.5 14ZM11.5 16C13.9853 16 16 13.9853 16 11.5C16 9.01472 13.9853 7 11.5 7C9.01472 7 7 9.01472 7 11.5C7 13.9853 9.01472 16 11.5 16Z" fill="#4FCB44"/>
<path fill-rule="evenodd" clip-rule="evenodd" d="M10.9329 15.8983C8.82551 15.8983 6.82401 17.4547 5.90739 20L4 19.3899C5.09532 16.3484 7.691 14 10.9329 14H12.0671C15.309 14 17.9047 16.3484 19 19.3899L17.0926 20C16.176 17.4547 14.1745 15.8983 12.0671 15.8983H10.9329Z" fill="#4FCB44"/>
<path fill-rule="evenodd" clip-rule="evenodd" d="M11.5 21C16.7467 21 21 16.7467 21 11.5C21 6.25329 16.7467 2 11.5 2C6.25329 2 2 6.25329 2 11.5C2 16.7467 6.25329 21 11.5 21ZM11.5 23C17.8513 23 23 17.8513 23 11.5C23 5.14873 17.8513 0 11.5 0C5.14873 0 0 5.14873 0 11.5C0 17.8513 5.14873 23 11.5 23Z" fill="#1A96F0"/>
</svg>
