<svg width="74" height="74" viewBox="0 0 74 74" fill="none" xmlns="http://www.w3.org/2000/svg">
<path fill-rule="evenodd" clip-rule="evenodd" d="M51.4181 49.4057C60.88 39.9463 60.88 24.6095 51.4181 15.1501C41.9562 5.69073 26.6155 5.69073 17.1536 15.1501C7.6917 24.6095 7.6917 39.9463 17.1536 49.4057C26.6155 58.8651 41.9562 58.8651 51.4181 49.4057ZM55.7011 53.6876C67.5285 41.8633 67.5285 22.6924 55.7011 10.8682C43.8738 -0.956063 24.6979 -0.956063 12.8705 10.8682C1.04316 22.6924 1.04316 41.8633 12.8705 53.6876C24.6979 65.5118 43.8738 65.5118 55.7011 53.6876Z" fill="#1A96F0"/>
<path d="M20.6001 16.5775C11.9266 25.2487 11.9267 39.3073 20.6001 47.9784L24.8831 43.6965C18.5752 37.3902 18.5753 27.1656 24.8831 20.8594L20.6001 16.5775Z" fill="#4FCB44"/>
<path d="M45.1455 56.2981L60.5436 71.6918C63.6219 74.7693 68.6128 74.7693 71.6911 71.6918C74.7695 68.6143 74.7695 63.6246 71.6911 60.5471L56.2931 45.1534L52.1127 49.3327L67.5108 64.7264C68.2804 65.4957 68.2804 66.7432 67.5108 67.5125C66.7412 68.2819 65.4935 68.2819 64.7239 67.5125L49.3258 52.1188L45.1455 56.2981Z" fill="#1A96F0"/>
<path d="M61.9362 59.1541L66.1165 54.9749L71.6903 60.5472C74.7688 63.6248 74.7687 68.6143 71.6903 71.6918C68.612 74.7694 63.6212 74.7694 60.5428 71.6918L54.969 66.1195L59.1493 61.9403L64.7231 67.5126C65.4926 68.2819 66.7404 68.282 67.51 67.5126C68.2796 66.7432 68.2795 65.4957 67.51 64.7264L61.9362 59.1541Z" fill="#4FCB44"/>
<path d="M64.5715 32.2779C64.5715 15.5558 51.0119 2 34.2856 2V8.05558C47.6668 8.05558 58.5143 18.9002 58.5143 32.2779H64.5715Z" fill="#4FCB44"/>
</svg>
