<svg width="74" height="74" viewBox="0 0 74 74" fill="none" xmlns="http://www.w3.org/2000/svg">
<path fill-rule="evenodd" clip-rule="evenodd" d="M0 22C0 15.9249 4.92487 11 11 11H63C69.0751 11 74 15.9249 74 22V52C74 58.0751 69.0751 63 63 63H11C4.92487 63 0 58.0751 0 52V22ZM11 17C8.23858 17 6 19.2386 6 22V52C6 54.7614 8.23858 57 11 57H63C65.7614 57 68 54.7614 68 52V22C68 19.2386 65.7614 17 63 17H11Z" fill="#1A96F0"/>
<path fill-rule="evenodd" clip-rule="evenodd" d="M10 43C10 39.6863 12.6863 37 16 37H22C25.3137 37 28 39.6863 28 43V47C28 50.3137 25.3137 53 22 53H16C12.6863 53 10 50.3137 10 47V43ZM22 43H16V47H22V43Z" fill="#1A96F0"/>
<rect x="6" y="25" width="62" height="6" fill="#4FCB44"/>
<rect x="42" y="42" width="26" height="6" fill="#1A96F0"/>
<path fill-rule="evenodd" clip-rule="evenodd" d="M49.1795 63H10.9999C10.9118 63 10.8239 62.999 10.7363 62.9969L14.1986 57H52.6436L49.1795 63ZM73.8614 20.2497C73.0231 15.0065 68.4793 11 62.9999 11H40.7568L37.2927 17H62.9999C65.7613 17 67.9999 19.2386 67.9999 22V30.4022L73.8614 20.2497Z" fill="#4FCB44"/>
<path fill-rule="evenodd" clip-rule="evenodd" d="M22 53V47H16V43H10V47C10 50.3137 12.6863 53 16 53H22Z" fill="#4FCB44"/>
</svg>
