<svg width="74" height="74" viewBox="0 0 74 74" fill="none" xmlns="http://www.w3.org/2000/svg">
<path d="M13 25.9993L2.32572 35.5747C0.84561 36.9025 0 38.797 0 40.7854V61C0 65.9706 4.02944 70 9 70H65C69.9706 70 74 65.9706 74 61V40.7854C74 38.797 73.1544 36.9025 71.6743 35.5747L61 25.9993V34.0597L67.6678 40.041C67.8792 40.2307 68 40.5013 68 40.7854V61C68 62.6569 66.6569 64 65 64H9C7.34315 64 6 62.6569 6 61V40.7854C6 40.5013 6.1208 40.2307 6.33225 40.041L13 34.0597V25.9993Z" fill="#1A96F0"/>
<path fill-rule="evenodd" clip-rule="evenodd" d="M52 70.0009H22L22 64.0009H52V70.0009Z" fill="#4FCB44"/>
<path fill-rule="evenodd" clip-rule="evenodd" d="M10 4H64V46H10V4ZM16 10V40H58V10H16Z" fill="#4FCB44"/>
<path fill-rule="evenodd" clip-rule="evenodd" d="M68 46L6 46L6 40L68 40V46Z" fill="#1A96F0"/>
<rect x="22" y="16" width="30" height="6" fill="#1A96F0"/>
<rect x="22" y="28" width="30" height="6" fill="#4FCB44"/>
</svg>
