<svg width="14" height="15" viewBox="0 0 14 15" fill="none" xmlns="http://www.w3.org/2000/svg">
<path d="M6 0H8V8H6V0Z" fill="#A6AEB7"/>
<path d="M14 13V15L0 15L8.74243e-08 13L14 13Z" fill="#A6AEB7"/>
<path d="M14 15L12 15V10H14L14 15Z" fill="#A6AEB7"/>
<path d="M2 15H0L4.77012e-08 10H2L2 15Z" fill="#A6AEB7"/>
<path d="M4.3618 6.72361C4.19558 6.39116 4.43733 6 4.80902 6H9.19098C9.56267 6 9.80442 6.39116 9.6382 6.72361L7.44721 11.1056C7.26295 11.4741 6.73705 11.4741 6.55279 11.1056L4.3618 6.72361Z" fill="#A6AEB7"/>
</svg>
