<svg width="33" height="29" viewBox="0 0 33 29" fill="none" xmlns="http://www.w3.org/2000/svg">
<path d="M15.2779 20.49C15.1579 20.49 15.0559 20.448 14.9719 20.364C14.8879 20.28 14.8459 20.178 14.8459 20.058V11.832C14.8459 11.7 14.8879 11.598 14.9719 11.526C15.0559 11.442 15.1579 11.4 15.2779 11.4H16.7719C16.8919 11.4 16.9939 11.442 17.0779 11.526C17.1619 11.61 17.2039 11.712 17.2039 11.832V20.058C17.2039 20.178 17.1619 20.28 17.0779 20.364C16.9939 20.448 16.8919 20.49 16.7719 20.49H15.2779ZM15.1699 24C15.0499 24 14.9479 23.958 14.8639 23.874C14.7799 23.79 14.7379 23.688 14.7379 23.568V21.858C14.7379 21.726 14.7799 21.624 14.8639 21.552C14.9479 21.468 15.0499 21.426 15.1699 21.426H16.8619C16.9939 21.426 17.1019 21.468 17.1859 21.552C17.2699 21.636 17.3119 21.738 17.3119 21.858V23.568C17.3119 23.688 17.2699 23.79 17.1859 23.874C17.1019 23.958 16.9939 24 16.8619 24H15.1699Z" fill="#353A40"/>
<path fill-rule="evenodd" clip-rule="evenodd" d="M30.0389 27L16.0209 2.96924L2.00301 27L30.0389 27ZM17.7485 1.9615C16.9767 0.638485 15.0651 0.638487 14.2934 1.9615L0.275454 25.9922C-0.502312 27.3255 0.45943 29 2.00301 29H30.0389C31.5825 29 32.5442 27.3255 31.7664 25.9922L17.7485 1.9615Z" fill="#353A40"/>
</svg>
